<?xml version="1.0" standalone="no"?>
<!DOCTYPE svg PUBLIC "-//W3C//DTD SVG 20010904//EN"
 "http://www.w3.org/TR/2001/REC-SVG-20010904/DTD/svg10.dtd">
<svg version="1.0" xmlns="http://www.w3.org/2000/svg"
 width="256px" height="256px" viewBox="0 0 144.000000 137.000000"
 preserveAspectRatio="xMidYMid meet">

<g transform="translate(0.000000,137.000000) scale(0.100000,-0.100000)"
fill="red" stroke="none">
<path d="M425 1353 c-261 -39 -444 -280 -404 -533 37 -239 246 -411 482 -398
71 4 187 34 206 53 4 5 -45 221 -53 232 -1 1 -28 -11 -60 -27 -101 -52 -197
-38 -276 38 -149 144 -63 384 147 409 43 5 51 10 73 45 14 22 51 64 82 92 l58
52 -53 16 c-57 18 -156 28 -202 21z"/>
<path d="M810 1327 c-129 -44 -214 -117 -271 -233 -30 -60 -59 -187 -46 -200
6 -6 202 -63 220 -64 4 0 7 26 7 58 0 72 25 126 78 174 50 45 133 72 189 62
81 -15 157 -74 187 -146 22 -52 20 -143 -4 -196 -19 -43 -19 -44 -1 -80 25
-49 51 -138 51 -174 l0 -29 37 28 c176 134 217 423 87 620 -115 172 -337 247
-534 180z"/>
<path d="M871 796 l-84 -84 39 -20 c84 -43 128 -117 128 -212 0 -78 -24 -131
-84 -182 -101 -87 -234 -76 -329 28 -48 52 -52 55 -118 63 -37 5 -92 18 -121
29 -28 11 -52 18 -52 15 0 -26 38 -139 61 -184 103 -192 358 -286 568 -209
192 70 306 239 304 450 -2 103 -25 176 -83 258 -32 47 -124 132 -141 132 -3 0
-42 -38 -88 -84z"/>
</g>
</svg>
