<?xml version="1.0" encoding="utf-8"?>
<!-- Generator: Adobe Illustrator 22.0.0, SVG Export Plug-In . SVG Version: 6.00 Build 0)  -->
<svg version="1.1" id="Layer_1" xmlns="http://www.w3.org/2000/svg" xmlns:xlink="http://www.w3.org/1999/xlink" x="0px" y="0px"
	 viewBox="0 0 15 15" style="enable-background:new 0 0 15 15;" xml:space="preserve">
<g transform="translate(0.000000,626.000000) scale(0.100000,-0.100000)">
	<path d="M70.6,6259.4c-8.6-0.7-15.1-2.1-22.4-4.9c-14.4-5.4-26.9-15.5-35.6-28.5c-4.9-7.4-8.1-14.5-10.3-23.2
		c-0.8-3.1-1.2-5.3-1.8-9.9c-0.4-3-0.6-10.7-0.3-14c1.2-13.6,5-24.4,12.1-35.4c3.4-5.2,9-11.6,13.8-15.7
		c9.7-8.3,22.3-14.4,34.3-16.7c1.1-0.2,2.1-0.4,2.4-0.5c0.4-0.1,0.4,1.5,0.4,31.5v31.7l-5.9,0l-5.9,0.1v10.3v10.3l5.9,0.1l5.9,0v2.8
		c0,10.7,2.9,20.5,8.2,27.4c3.3,4.3,8.7,8.3,13.5,10.1c0.6,0.2,1.7,0.6,2.3,0.8c2,0.7,6.5,1.6,9.6,1.8c4.1,0.3,10.3,0,14.4-0.9
		c1.8-0.3,3.4-0.7,3.5-0.9c0.2-0.2,0.3-0.6,0.2-1.3c-0.1-0.6-0.3-4.6-0.5-8.9c-0.4-7.9-0.6-11.1-0.7-11.2c0,0-1.3,0.2-2.7,0.5
		c-3.3,0.6-8.1,0.7-10,0.2c-3.4-1-5.5-2.7-7-5.5c-1.8-3.3-2.4-6.5-2.4-12.1v-2.7l9.1,0l9-0.1l0.1-10.4l0-10.4h-9h-9v-31.2
		c0-29.6,0-31.2,0.4-31c0.2,0.1,1.4,0.4,2.7,0.8c5.4,1.4,12,4.1,17,7c2.8,1.6,6.9,4.3,8.4,5.5c0.6,0.5,1.7,1.4,2.5,2
		c5,4,10.7,10.3,14.7,16.2c2.1,3.2,5.1,8.7,6.5,12.2c0.4,1,0.9,2.3,1.2,2.9c1.5,3.5,3.1,10.1,4,15.9c0.5,3.5,0.6,4.9,0.6,10.2
		c0,6.2-0.1,7.5-1.1,13.4c-2.8,16.8-12.3,33.2-25.9,44.5c-7.6,6.3-16.4,11.1-25.9,14c-1.7,0.5-3.9,1.1-4.9,1.3
		c-1,0.2-2.5,0.5-3.4,0.7C84.7,6259.1,74.7,6259.7,70.6,6259.4z"/>
</g>
</svg>
