<?xml version="1.0" encoding="utf-8"?>
<!-- Generator: Adobe Illustrator 22.0.0, SVG Export Plug-In . SVG Version: 6.00 Build 0)  -->
<svg version="1.1" id="Layer_1" xmlns="http://www.w3.org/2000/svg" xmlns:xlink="http://www.w3.org/1999/xlink" x="0px" y="0px"
	 viewBox="0 0 15 15" style="enable-background:new 0 0 15 15;" xml:space="preserve">
<style type="text/css">
	.st0{fill:#17AF95;}
</style>
<g transform="translate(0.000000,452.000000) scale(0.100000,-0.100000)">
	<path class="st0" d="M68.6,4519.5c-6-1-12.7-3.7-17.7-7.3c-1.3-0.9-3.7-3-5.4-4.7c-6-6.2-9.9-13.6-11.5-22.2
		c-0.6-3.5-0.7-10.8-0.2-14.6c2.3-15.8,12.4-37.4,29.5-63.3c5.3-8,11.2-16.2,11.7-16.2c0.9,0,14.7,20.4,20.8,30.8
		c11.7,20,18.4,35.9,20.3,48.7c0.6,3.8,0.5,11.3-0.2,14.7C111.7,4507.8,90.7,4523,68.6,4519.5z M80.5,4502.5
		c6.8-1.6,12.4-5.8,16.4-12.1c1.7-2.6,2.7-5.1,3.6-8.6c1-3.8,1.2-9.6,0.4-14.1c-1.9-11.2-8.4-26.7-18.4-43.6
		c-2.2-3.8-7.3-11.8-7.5-11.8c-0.1,0-1.4,1.9-2.8,4.2c-12,18.6-20.8,38.1-23,51c-0.5,2.8-0.6,4-0.5,7.5c0.1,2.4,0.3,4.8,0.6,5.8
		c3,11.8,11.1,20,21.6,21.9C73.4,4503.2,77.9,4503.1,80.5,4502.5z"/>
	<path class="st0" d="M72.4,4493.7c-8.7-1.3-14.9-10.5-13-19.4c1.7-8.3,10-14.1,18-12.7c10.7,1.8,16.7,13.6,11.9,23.3
		C86.1,4491.2,79.5,4494.7,72.4,4493.7z M77.4,4482.5c1.1-0.5,2.1-1.5,2.6-2.6c0.6-1.2,0.5-3.7-0.2-4.9c-0.6-1.1-2.1-2.3-3.1-2.7
		c-1-0.3-2.8-0.3-3.8,0.1c-1,0.4-2.4,1.7-2.9,2.9c-0.6,1.2-0.5,3.7,0.2,4.9c0.6,1,2.1,2.3,3,2.6C74.4,4483.1,76.4,4483,77.4,4482.5z
		"/>
	<path class="st0" d="M18.3,4422.2c0-0.1-4.1-11.8-9.1-26.1l-9.1-26l37.5-0.1c20.6,0,54.4,0,75,0l37.5,0.1l-9.1,26
		c-5,14.3-9.1,26-9.1,26.1c0,0-5.5,0.1-12.2,0.1h-12.2l-1.8-3.1c-1-1.7-7.3-10.3-7.3-10.3s6.2,0,12.7,0l10.7,0.1l4.3-12.7
		c3.8-10.7,4.5-11.9,4.5-11.9c-3.9-0.1-17.8-0.2-54.1-0.2s-55.3,0.1-55.3,0.2c0,0,0.3,1.1,4.1,11.8l4.2,11.9l9.2-0.1
		c6.5,0,11.8,0.1,11.8,0.2c0,0.1-4.8,9.2-5.8,10.9l-1.8,3.1H30.5C23.8,4422.3,18.3,4422.2,18.3,4422.2z"/>
</g>
</svg>
