<?xml version="1.0" encoding="utf-8"?>
<!-- Generator: Adobe Illustrator 22.0.0, SVG Export Plug-In . SVG Version: 6.00 Build 0)  -->
<svg version="1.1" id="Layer_1" xmlns="http://www.w3.org/2000/svg" xmlns:xlink="http://www.w3.org/1999/xlink" x="0px" y="0px" width="8px" height="8px"
	 viewBox="0 0 10 10" style="enable-background:new 0 0 10 10;" xml:space="preserve">
<style type="text/css">
	.st0{fill:#17AF95;}
</style>
<g transform="translate(0.000000,224.000000) scale(0.100000,-0.100000)">
	<path class="st0" d="M85.5,2238.7c-2.2-1.3-6.2-6.5-27-35.7c-13.5-18.9-24.7-34.3-24.8-34.3c-0.2-0.1-4,4.6-8.6,10.4
		c-4.5,5.8-9.1,11-10.1,11.6c-2.6,1.6-7.4,1.5-10.1-0.2c-3.1-2-4.8-5.2-4.8-9.1c0-1.8,0.5-4.1,1-5.2c1.5-3.2,26.1-33.6,28.2-34.9
		c2.4-1.6,6.9-1.7,9.5-0.2c2.7,1.7,59.8,81.5,60.9,85.2c1.4,5-0.9,10.4-5.3,12.6C91.2,2240.4,88.5,2240.4,85.5,2238.7z"/>
</g>
</svg>
