<?xml version="1.0" standalone="no"?>
<!DOCTYPE svg PUBLIC "-//W3C//DTD SVG 20010904//EN"
 "http://www.w3.org/TR/2001/REC-SVG-20010904/DTD/svg10.dtd">
<svg version="1.0" xmlns="http://www.w3.org/2000/svg"
 width="15px" height="15px" viewBox="0 0 626.000000 626.000000"
 preserveAspectRatio="xMidYMid meet">

<g transform="translate(0.000000,626.000000) scale(0.100000,-0.100000)"
fill="#17AF95" stroke="none">
<path d="M2945 6234 c-359 -30 -630 -89 -934 -204 -599 -226 -1124 -647 -1486
-1190 -204 -307 -337 -606 -428 -967 -33 -128 -50 -220 -77 -413 -18 -127 -24
-445 -11 -586 52 -567 208 -1020 507 -1479 142 -218 375 -483 576 -656 404
-346 931 -602 1432 -695 44 -8 89 -17 99 -20 16 -5 17 62 17 1315 l0 1321
-247 2 -248 3 0 430 0 430 248 3 247 2 0 118 c0 446 122 856 341 1142 138 180
363 348 564 421 27 10 70 25 94 34 82 30 272 66 400 75 171 13 430 -2 602 -36
74 -14 140 -31 147 -37 9 -7 12 -25 8 -56 -4 -25 -13 -192 -21 -371 -15 -328
-24 -462 -30 -469 -2 -2 -54 7 -114 19 -138 27 -340 31 -416 7 -140 -43 -230
-113 -293 -230 -75 -136 -102 -271 -102 -506 l0 -111 378 -2 377 -3 3 -432 2
-433 -375 0 -375 0 0 -1301 c0 -1235 1 -1301 18 -1294 9 3 60 18 112 32 224
59 500 173 710 292 116 67 289 180 350 230 25 21 72 59 105 85 210 169 446
430 612 676 88 132 213 365 273 510 17 41 39 95 50 120 61 146 130 422 167
665 22 146 26 206 27 425 1 257 -4 315 -45 560 -117 703 -514 1386 -1079 1856
-317 263 -685 462 -1080 584 -73 22 -164 47 -203 55 -40 9 -103 22 -142 30
-171 36 -589 63 -760 49z"/>
</g>
</svg>
