<?xml version="1.0" encoding="utf-8"?>
<!-- Generator: Adobe Illustrator 22.0.0, SVG Export Plug-In . SVG Version: 6.00 Build 0)  -->
<svg version="1.1" id="Layer_1" xmlns="http://www.w3.org/2000/svg" xmlns:xlink="http://www.w3.org/1999/xlink" x="0px" y="0px"
	 viewBox="0 0 15 15" style="enable-background:new 0 0 15 15;" xml:space="preserve">
<g transform="translate(0.000000,920.000000) scale(0.100000,-0.100000)">
	<path d="M58,9198.8c-8.4-0.1-16-0.5-19.8-1c-7-0.9-13.4-3.1-18.4-6.4c-4.3-2.8-8.3-6.8-11.1-11.1c-3.2-5-5.5-11.4-6.4-18.4
		c-0.8-6.1-1-12.8-1-36.8c0-21.4,0.1-27.3,0.7-33.7c1.1-12.8,5.4-22.3,13.3-29.3c4.9-4.3,10.2-7.1,17-8.8c7-1.8,13.4-2.1,42.8-2.1
		c25.8,0,32.6,0.2,38.9,1.3c10.2,1.7,18.4,6.1,24.3,13c5.9,6.9,9,14.9,9.9,25.8c0.5,6.3,0.7,12.3,0.7,33.6c0,30.1-0.3,36-2.3,43.5
		c-3.7,13.9-13.3,23.8-27.1,27.8c-4.9,1.4-9,1.9-18.1,2.3C97.5,9198.7,66.1,9198.9,58,9198.8z M99.4,9185.3c10.5-0.3,14.6-1,19.7-3
		c4.4-1.8,8.3-5,11.1-9c2.3-3.5,3.9-8.4,4.6-14.2c0.6-4.8,0.7-10.2,0.7-34.2c0-27.1-0.1-31-1.1-36.7c-1.4-8.1-5.1-14.2-11-18.2
		c-3.1-2.1-7-3.6-11.5-4.3c-5.6-0.9-9.6-1.1-35.3-1.1c-26.5,0-32.1,0.1-36.9,0.8c-5.2,0.8-9.7,2.3-12.8,4.4c-2.9,2-5.8,4.9-7.5,7.8
		c-2.1,3.5-3.5,8.3-4.1,13.9c-0.5,4.5-0.6,10.2-0.6,33.5c0,24.2,0.1,29,0.7,34c0.8,7.2,2.9,12.6,6.6,16.8c4.5,5.1,10.5,7.9,19,8.9
		c2,0.2,7.6,0.5,12.1,0.6C57.2,9185.5,95.9,9185.4,99.4,9185.3z"/>
	<path d="M113,9173.1c-2.4-0.4-5-2.2-6.2-4.3c-1.1-1.9-1.5-4.5-1-6.5c1-4,4.6-6.8,8.7-6.7c6.5,0,10.7,6.9,7.7,12.8
		C120.6,9171.7,116.7,9173.8,113,9173.1z"/>
	<path d="M71.3,9162.7c-15.9-1.6-29.1-13-33-28.5c-0.7-2.9-0.9-4.6-1-8.2c-0.1-4.7,0.2-7.5,1.4-11.7c3-10.4,10.8-19.4,20.7-23.9
		c3.5-1.6,7.8-2.8,11.4-3.1c2-0.2,6.4-0.2,8.4,0c8.1,0.9,15.9,4.5,21.9,10.2c6,5.7,9.7,12.7,11.3,21.1c0.5,2.6,0.6,8.2,0.2,11.1
		c-1,8.2-4.6,15.6-10.3,21.6c-6,6.3-13.8,10.2-22.5,11.3C78.1,9162.8,72.9,9162.9,71.3,9162.7z M79.7,9149.1c5-1,9.1-3.2,12.6-6.8
		c3.5-3.5,5.7-7.6,6.8-12.6c0.5-2.5,0.5-7,0-9.5c-2.1-10-9.4-17.3-19.4-19.4c-2.5-0.5-7-0.5-9.5,0c-10,2.1-17.3,9.4-19.4,19.4
		c-0.5,2.3-0.5,6.8-0.1,9.1c1,5,3.3,9.4,6.9,13c4.1,4.1,9,6.4,15.1,7.2C74.1,9149.7,78.1,9149.5,79.7,9149.1z"/>
</g>
</svg>
