<?xml version="1.0" encoding="utf-8"?>
<!-- Generator: Adobe Illustrator 22.0.0, SVG Export Plug-In . SVG Version: 6.00 Build 0)  -->
<svg version="1.1" id="Layer_1" xmlns="http://www.w3.org/2000/svg" xmlns:xlink="http://www.w3.org/1999/xlink" x="0px" y="0px"
	 viewBox="0 0 20 20" style="enable-background:new 0 0 20 20;" xml:space="preserve">
<style type="text/css">
	.st0{fill:#FFFFFF;}
</style>
<g transform="translate(0.000000,452.000000) scale(0.100000,-0.100000)">
	<path class="st0" d="M33.8,4519.3c-1.4-0.5-3.3-1.5-4.3-2.2c-8.6-6-22.9-19.5-26.6-25.1c-2.8-4.2-3.3-6.4-2.9-11.4
		c1.8-21.3,15.3-46.5,40.9-76.5c8.2-9.6,33.4-34.8,43.2-43.1c29.9-25.5,55.3-39,76.6-40.8c5-0.5,7.3,0.1,11.4,2.9
		c6.7,4.4,23.1,22.4,26.4,29.1c1.2,2.3,1.4,3.4,1.4,6.8c0,3.5-0.2,4.3-1.4,6.4c-1.3,2.3-3.2,3.6-22.4,16.3
		c-11.5,7.6-21.9,14.2-23,14.8c-5,2.2-9.4,1-22.5-6.3l-9.7-5.4l-2.6,1.8c-9.3,6.2-34.2,30.2-46,44.3c-4.4,5.2-7.8,9.7-7.8,10.3
		c0,0.3,2.3,4.5,5.1,9.5c7.8,13.6,8.9,18,6,23.4c-0.8,1.5-7.5,11.8-14.8,22.9c-12.1,18.2-13.7,20.3-15.8,21.5
		C42.3,4520.2,37.4,4520.6,33.8,4519.3z M48.3,4499.2c0.4-0.4,7-9.9,9.6-14c3.3-5.2,9-13.8,0.5-29c-2.7-4.6-11.7-17.2-11.7-17.5
		c0-0.8,10.5-12.2,14.2-16.7c12.7-15.7,33.9-38.6,45.8-46.7c1.8-1.2,11.4-7.9,11.7-7.9c0.3,0,8.3,3.9,13,6.5
		c4.6,2.7,11.3,6.5,12.5,7.1c2.3,1.2,5.9,3.7,7,3c0.4-0.2,1.9,1.8,11.4-4.5c12.3-8.1,17.4-11.8,17.6-12.5c0.5-1.9-0.7-4.3-4.2-8.8
		c-5-6.3-15-16.2-17.7-17.5c-2.1-1-2.2-1-6.9-0.4c-16.2,2.3-37.7,14.6-60.4,34.3c-22.3,19.5-42.4,41.7-55,60.9
		c-4.6,6.9-10.7,19.1-12.7,25.3c-1.8,5.4-3.2,13.2-2.7,15.3c0.8,3.5,9.9,12.8,20.5,21.1C43.6,4499.7,47,4500.5,48.3,4499.2z"/>
</g>
</svg>
