<?xml version="1.0" encoding="utf-8"?>
<!-- Generator: Adobe Illustrator 22.0.0, SVG Export Plug-In . SVG Version: 6.00 Build 0)  -->
<svg version="1.1" id="Layer_1" xmlns="http://www.w3.org/2000/svg" xmlns:xlink="http://www.w3.org/1999/xlink" x="0px" y="0px"
	 viewBox="0 0 100 100" style="enable-background:new 0 0 100 100;" xml:space="preserve" fill="#DCEFF0">
<g transform="translate(0.000000,360.000000) scale(0.100000,-0.100000)">
	<path d="M973.8,3591.2c3.9-1.9,9.3-8.3,12.2-14.4c7.4-15,4.2-30.4-8.4-40.6c-9.3-8-11.3-8.3-53.1-8.3c-40.2,0-43.1-0.3-43.1-6.1
		c0-3.2-6.4-67.8-14.5-143c-8-75.5-21.2-199-29-274.9c-8-75.5-16.1-145-18-154.2c-5.5-27.8-26.1-53.4-55.7-69.1l-13.2-7l-299-1
		l-298.7-0.6l-17.1,7.7c-22.9,10.2-41.5,27.8-51.2,47.7c-5.8,11.5-21.2,77.4-51.8,218.9C9.6,3257.4-10,3351.5-10,3355.3
		c0,23.4,18.3,50.9,39.9,60.8c12.6,5.8,30.6,6.1,392,6.1h378.5l1.9,12.2c1,6.4,4.2,32.6,6.8,58.2c9,87.4,8.4,83.8,18,93.4l8.7,9
		l65.7-0.3C940.4,3594.7,969.7,3593.1,973.8,3591.2z M60.8,3352.4c0-1.3,4.5-22.4,9.7-47c5.5-24.6,17.7-82.2,27.7-128
		c9.7-45.8,19-89,20.6-96c1.9-7,8.4-37.1,14.5-66.6c6.4-29.8,13.2-57,15.4-60.2c10-16,4.2-15.7,300.6-15.7
		c294.8,0,285.5-0.3,297.4,16c6.1,8.3,7.7,18.9,35.1,281.6c5.5,51.8,10.6,99.8,11.6,106.6l1.9,11.8H428
		C225.9,3355,60.8,3354,60.8,3352.4z"/>
	<path d="M702.9,2798.5c30.9-8,60.5-35.2,72.4-66.2c13.5-36.2,4.8-75.8-24.1-106.6c-20.6-21.8-41.2-30.4-74-30.4
		c-30.6,0-48.6,6.7-70.5,27.2c-22.2,20.2-32.2,43.5-32.2,74.9c-0.3,21.8,1,28.5,8.7,43.5c10.3,21.4,32.2,42.6,53.1,51.5
		C652.3,2799.8,686.8,2802.7,702.9,2798.5z M659.1,2726.2c-21.2-11.2-21.2-44.5,0.3-57c24.1-14.4,51.2,1.3,51.5,29.1
		C710.9,2725.2,684.8,2739.3,659.1,2726.2z"/>
	<path d="M292.2,2796.3c29.3-10.6,48-26.6,62.4-53.8c9.7-17.9,10.3-71,1-88.3c-12.6-22.7-28-38.1-49.6-48.6
		c-18.3-9-24.8-10.6-45.7-10.6c-39.9,0-73.1,19.5-91.7,53.4c-7.7,14.1-9.7,21.8-10.6,44.8c-1.3,24.3-0.3,29.8,6.8,45.1
		c17.4,37.8,49.9,59.8,90.8,62.1C270.6,2801.1,282.5,2799.8,292.2,2796.3z M237.2,2721.7c-9-8-10.6-11.5-10.6-24.3
		c0-12.8,1.6-16.3,10.6-24.3c18.7-16.6,45.4-10.6,55.4,12.8c5.1,12.5,1.9,24.3-9.7,35.8C270,2734.8,251.7,2734.5,237.2,2721.7z"/>
</g>
</svg>
