<?xml version="1.0" standalone="no"?>
<!DOCTYPE svg PUBLIC "-//W3C//DTD SVG 20010904//EN"
 "http://www.w3.org/TR/2001/REC-SVG-20010904/DTD/svg10.dtd">
<svg version="1.0" xmlns="http://www.w3.org/2000/svg"
 width="15px" height="15px" viewBox="0 0 225.000000 225.000000"
 preserveAspectRatio="xMidYMid meet">

<g transform="translate(0.000000,225.000000) scale(0.100000,-0.100000)"
fill="#17AF95" stroke="none">
<path d="M948 2234 c-242 -37 -457 -151 -634 -336 -124 -130 -199 -253 -254
-418 -140 -415 -26 -865 296 -1170 185 -176 401 -275 659 -302 393 -41 774
130 1017 456 274 368 287 893 31 1279 -59 89 -185 222 -272 286 -239 177 -545
252 -843 205z m291 -184 c362 -46 665 -299 775 -649 134 -425 -57 -887 -456
-1100 -509 -272 -1147 -8 -1322 547 -107 341 -9 710 256 957 109 103 216 165
358 209 137 43 249 53 389 36z"/>
<path d="M1078 1804 c-15 -8 -32 -23 -38 -34 -6 -12 -10 -143 -10 -350 l0
-332 29 -29 29 -29 280 0 280 0 31 26 c26 21 31 33 31 69 0 36 -5 48 -31 69
l-31 26 -214 0 -214 0 0 266 c0 163 -4 273 -10 285 -12 22 -61 49 -87 49 -10
-1 -30 -7 -45 -16z"/>
</g>
</svg>
