<?xml version="1.0" standalone="no"?>
<!DOCTYPE svg PUBLIC "-//W3C//DTD SVG 20010904//EN"
 "http://www.w3.org/TR/2001/REC-SVG-20010904/DTD/svg10.dtd">
<svg version="1.0" xmlns="http://www.w3.org/2000/svg"
 width="15px" height="15px" viewBox="0 0 512.000000 512.000000"
 preserveAspectRatio="xMidYMid meet">

<g transform="translate(0.000000,512.000000) scale(0.100000,-0.100000)"
fill="#17AF95" stroke="none">
<path d="M3196 5109 c-526 -61 -978 -422 -1155 -922 -67 -191 -73 -242 -78
-669 l-5 -388 -254 0 -255 0 -24 -26 -25 -27 0 -383 0 -383 24 -28 24 -28 256
-3 256 -3 0 -1095 0 -1096 29 -29 29 -29 380 0 380 0 31 26 31 26 0 1099 0
1098 369 3 369 3 26 24 26 24 0 388 c0 366 -1 388 -19 410 l-19 24 -374 5
-373 5 -3 307 c-3 347 4 407 60 517 42 82 137 177 219 219 95 48 177 62 375
62 l171 0 27 26 26 27 0 384 0 385 -29 29 -29 29 -199 -1 c-109 -1 -229 -5
-267 -10z"/>
</g>
</svg>
