<?xml version="1.0" encoding="utf-8"?>
<!-- Generator: Adobe Illustrator 22.0.0, SVG Export Plug-In . SVG Version: 6.00 Build 0)  -->
<svg version="1.1" id="Layer_1" xmlns="http://www.w3.org/2000/svg" xmlns:xlink="http://www.w3.org/1999/xlink" x="0px" y="0px"
	 viewBox="0 0 25 25" style="enable-background:new 0 0 25 25;" xml:space="preserve" height="15px" width="15px">
<style type="text/css">
	.st0{fill:#FFFFFF;}
</style>
<g transform="translate(0.000000,225.000000) scale(0.100000,-0.100000)">
	<path class="st0" d="M25.9,2241c-13.2-5.5-11.2-14.1-2.9-17c6.3-3.6,30.8-1.9,82.8-1.9l87.4,0.4l-78-82.6
		c-45.7-46.5-86.9-86.1-88.1-89.4c-10.7-12.3,1.3-24,13.7-12.3c3.1,1.2,62.2,61.8,107.4,107.4l62.5,60.6l-0.3-109.5
		c0-52.8-0.4-51.1,2.2-61.9c1-4,16-11.6,17.5,3.2c0.6,12.8,1.2,64.7,1.7,112c1,89.1,7.8,93.9-9.9,93.4c-2.1,1-32.4-0.4-77.8,0.1
		C78.5,2244.3,31.1,2243.3,25.9,2241z"/>
</g>
</svg>
