<?xml version="1.0" standalone="no"?>
<!DOCTYPE svg PUBLIC "-//W3C//DTD SVG 20010904//EN"
 "http://www.w3.org/TR/2001/REC-SVG-20010904/DTD/svg10.dtd">
<svg version="1.0" xmlns="http://www.w3.org/2000/svg"
 width="18px" height="18px" viewBox="0 0 980.000000 980.000000"
 preserveAspectRatio="xMidYMid meet">

<g transform="translate(0.000000,980.000000) scale(0.100000,-0.100000)"
fill="#FFFFFF" stroke="none">
<path d="M4730 9793 c-180 -12 -321 -27 -462 -48 -1254 -185 -2393 -868 -3154
-1890 -980 -1318 -1207 -3052 -599 -4585 71 -181 190 -427 282 -587 l71 -123
-140 -412 c-77 -227 -225 -665 -330 -973 -361 -1064 -398 -1177 -384 -1172 8
3 95 31 193 62 98 31 282 90 408 130 127 41 559 178 960 305 402 128 806 256
899 286 93 30 175 54 181 54 7 0 100 -42 206 -94 388 -188 752 -313 1161 -396
916 -186 1880 -103 2738 237 1326 525 2349 1600 2795 2938 478 1435 244 3015
-628 4242 -784 1103 -1974 1818 -3319 1992 -268 35 -653 50 -878 34z m710
-778 c1205 -141 2256 -782 2927 -1785 343 -512 553 -1082 640 -1735 22 -166
25 -743 5 -905 -48 -383 -127 -696 -259 -1030 -145 -366 -348 -716 -599 -1030
-139 -174 -452 -487 -622 -622 -558 -444 -1181 -724 -1867 -838 -93 -16 -228
-34 -300 -41 -167 -17 -584 -17 -745 -1 -410 42 -829 145 -1181 292 -205 86
-509 245 -649 340 -24 16 -41 12 -710 -201 -872 -278 -849 -271 -858 -267 -5
2 52 181 126 398 74 217 185 546 248 731 63 185 114 341 114 347 0 6 -38 66
-84 134 -259 382 -462 840 -569 1288 -202 841 -129 1711 209 2502 332 778 915
1441 1651 1879 549 326 1161 515 1823 563 120 8 571 -3 700 -19z"/>
<path d="M3308 7199 c-62 -9 -151 -51 -206 -96 -58 -48 -183 -191 -242 -278
-125 -184 -187 -367 -212 -615 -32 -326 78 -711 312 -1095 60 -98 314 -459
412 -586 308 -396 678 -761 1021 -1007 344 -246 637 -388 1202 -581 453 -155
639 -185 878 -142 165 31 245 55 354 107 196 93 391 249 475 378 79 123 135
370 129 578 -2 90 -19 100 -671 411 -339 161 -430 197 -496 197 -67 0 -96 -21
-172 -123 -67 -91 -291 -363 -348 -423 -46 -49 -90 -67 -144 -61 -58 7 -377
150 -537 242 -447 255 -831 632 -1124 1101 -60 97 -73 125 -77 168 -5 59 -15
44 180 271 146 171 213 289 211 375 0 39 -10 75 -33 125 -17 39 -110 259 -207
490 -96 231 -183 434 -194 452 -30 49 -94 101 -131 107 -57 9 -331 12 -380 5z"/>
</g>
</svg>
