<?xml version="1.0" encoding="utf-8"?>
<!-- Generator: Adobe Illustrator 22.0.0, SVG Export Plug-In . SVG Version: 6.00 Build 0)  -->
<svg version="1.1" id="Layer_1" xmlns="http://www.w3.org/2000/svg" xmlns:xlink="http://www.w3.org/1999/xlink" x="0px" y="0px"
	 viewBox="0 0 225 225" style="enable-background:new 0 0 225 225;" xml:space="preserve">
<style type="text/css">
	.st0{fill:#FFFFFF;}
	.st1{fill:#F90606;}
</style>
<g transform="translate(0.000000,225.000000) scale(0.100000,-0.100000)">
	<path class="st0" d="M601,1964c-193-52-331-231-331-430c0-221,119-466,379-777c118-140,460-487,482-487c16,0,294,282,439,445
		c89,100,207,260,264,356c226,379,187,719-99,862c-106,53-245,59-360,16c-69-26-161-109-211-190l-36-58l-48,72
		c-52,81-110,135-177,167C816,1981,699,1990,601,1964z M840,1740.5c101.4-16.2,170.7-66.5,238.3-175.5c19-31,37.9-57.2,41.3-59.5
		c10.7-6.2,21.5,5.4,56.9,61c69.3,111.4,133.6,158.5,236.7,173.9c107.2,16.2,230,23.8,304.3-49.7c81.7-80.4,89.1-224,59.4-348.5
		c-46.1-196.4-271.9-437.3-514.6-702l-136.1-129.9l-52.8,48.7c-85.7,79.7-269,301.8-325.9,368.3
		c-152.6,178.5-254.7,309.8-277.8,454.3C438.4,1575.1,585,1772.5,779,1747.5C783.9,1747.5,811.1,1744.3,840,1740.5z"/>
</g>
<circle class="st1" cx="154.8" cy="32.8" r="20.8"/>
</svg>
