<?xml version="1.0" encoding="utf-8"?>
<!-- Generator: Adobe Illustrator 22.0.0, SVG Export Plug-In . SVG Version: 6.00 Build 0)  -->
<svg version="1.1" id="Layer_1" xmlns="http://www.w3.org/2000/svg" xmlns:xlink="http://www.w3.org/1999/xlink" x="0px" y="0px"
	 viewBox="0 0 20 20" style="enable-background:new 0 0 20 20;" xml:space="preserve">
<style type="text/css">
	.st0{fill:#FFFFFF;}
</style>
<g transform="translate(0.000000,452.000000) scale(0.100000,-0.100000)">
	<path class="st0" d="M41.8,4507.3c-1.2-0.4-2.9-1.3-3.8-1.9c-7.6-5.3-20.1-17.2-23.4-22c-2.4-3.7-2.9-5.7-2.5-10
		c1.6-18.8,13.4-40.9,35.9-67.3c7.2-8.5,29.4-30.6,37.9-37.9c26.3-22.4,48.6-34.3,67.3-35.9c4.4-0.4,6.4,0.1,10,2.5
		c5.9,3.9,20.3,19.7,23.2,25.6c1,2,1.2,3,1.2,6c0,3.1-0.2,3.8-1.2,5.7c-1.2,2-2.8,3.2-19.6,14.3c-10.1,6.7-19.2,12.5-20.2,13
		c-4.4,1.9-8.2,0.9-19.7-5.5l-8.5-4.8l-2.3,1.5c-8.2,5.5-30,26.5-40.4,38.9c-3.9,4.6-6.8,8.5-6.8,9.1c0,0.2,2,4,4.5,8.3
		c6.8,11.9,7.8,15.8,5.3,20.6c-0.7,1.3-6.5,10.4-13,20.2c-10.6,16-12,17.9-13.8,18.9C49.3,4508.1,45,4508.5,41.8,4507.3z
		 M48.3,4499.2c0.4-0.4,18.8-28.1,21.5-32.2c3.3-5.2,3.4-4.7-5.2-19.9c-2.7-4.6-4.8-8.7-4.8-8.9c0-0.8,3.9-6.5,7.6-10.9
		c12.7-15.7,35.2-37.3,47.1-45.4c1.8-1.2,3.5-2.2,3.8-2.2c0.3,0,4.3,2.2,9,4.8c4.6,2.7,9.5,5.3,10.7,5.9c2.3,1.2,5.3,1.6,6.4,1
		c0.4-0.2,8.5-5.5,18-11.9c12.3-8.1,17.4-11.8,17.6-12.5c0.5-1.9-0.7-4.3-4.2-8.8c-5-6.3-15-16.2-17.7-17.5c-2.1-1-2.2-1-6.9-0.4
		c-16.2,2.3-37.7,14.6-60.4,34.3c-22.3,19.5-42.4,41.7-55,60.9c-4.6,6.9-10.7,19.1-12.7,25.3c-1.8,5.4-3.2,13.2-2.7,15.3
		c0.8,3.5,9.9,12.8,20.5,21.1C43.6,4499.7,47,4500.5,48.3,4499.2z"/>
</g>
</svg>
