<?xml version="1.0" encoding="utf-8"?>
<!-- Generator: Adobe Illustrator 22.0.0, SVG Export Plug-In . SVG Version: 6.00 Build 0)  -->
<svg version="1.1" id="Layer_1" xmlns="http://www.w3.org/2000/svg" xmlns:xlink="http://www.w3.org/1999/xlink" x="0px" y="0px" width="16px" height="16px"
	 viewBox="0 0 16 16" style="enable-background:new 0 0 16 16;" xml:space="preserve">
<style type="text/css">
	.st0{fill:#17AF95;}
</style>
<g transform="translate(0.000000,512.000000) scale(0.100000,-0.100000)">
	<path class="st0" d="M9.8,5119.2c-5-1.6-9.8-8.5-9.8-14c0.1-4.9,1.9-7,31.3-36.5L60,5040l-28.7-28.7c-30-30.1-31.3-31.7-31.3-37.2
		c-0.1-8.8,9.5-15.9,18.2-13.6c2.8,0.8,5.4,3.2,32.5,30.1l29.3,29.3l28.7-28.7c15.7-15.8,29.6-29.1,30.8-29.7
		c3.8-1.9,7.4-2,11.3-0.4c5.5,2.4,9.2,7.9,9.2,13.5c-0.1,4.9-1.9,7-31.3,36.6L100,5040l28.7,28.8c30,30.1,31.3,31.6,31.3,37.1
		c0,7.1-7,14.3-14.1,14.3c-5.6,0-7-1.2-37.2-31.4L80,5060l-28.7,28.7c-30,30-31.7,31.5-36.9,31.3C13.2,5120,11.1,5119.6,9.8,5119.2z
		"/>
</g>
</svg>
