<?xml version="1.0" encoding="utf-8"?>
<!-- Generator: Adobe Illustrator 22.0.0, SVG Export Plug-In . SVG Version: 6.00 Build 0)  -->
<svg version="1.1" id="Layer_1" xmlns="http://www.w3.org/2000/svg" xmlns:xlink="http://www.w3.org/1999/xlink" x="0px" y="0px"
	 viewBox="0 0 23 23" style="enable-background:new 0 0 23 23;" xml:space="preserve" width="23px" height="23px">
<style type="text/css">
	.st0{fill:#1C4E99;}
</style>
<g transform="translate(0.000000,224.000000) scale(0.100000,-0.100000)" >
	<path class="st0" d="M25.4,2239.3c-6.5-2-12.8-6.2-17.2-11.2c-8.8-10-8.5-5.7-8.1-105.4l0.3-88.9l2.7-4.9
		c3.2-6.3,9.4-12.5,15.6-15.7l4.9-2.7l89.1-0.3c99.9-0.3,95.6-0.7,105.5,8c2.9,2.6,6.6,7.6,8.5,11.3l3.2,6.6v89v89l-3.2,6.6
		c-3.7,7.4-9.3,12.9-16.9,16.5c-5.2,2.4-6.5,2.4-93.4,2.7C67.9,2240.1,27,2239.7,25.4,2239.3z M71.8,2232.2
		c2.9-1.6,3.8-5.1,8.1-32.9c3.9-25.1,4.9-28.7,7.4-28.7c2.2,0,2-0.6,7.7,28.5c2.8,14.1,5.4,26.3,6.1,27.1c1.5,2,7.2,1.7,9-0.5
		c1.2-1.5,1.2-5.7,0.1-22.9c-0.8-11.6-1.4-26-1.4-31.9v-10.7l-6-2.2c-8.2-3-14.3-4.7-21.1-5.5c-13.6-1.7-16.9-15.9-5.9-25.3
		c4.4-3.7,12.2-5.6,23.4-5.6h10.9l-3.6-6.6c-2-3.7-8.1-12.7-13.7-19.9l-10.1-13.3l-9.7-0.5c-8.2-0.3-10.3-0.1-13.4,1.9
		c-7.8,4.8-12.6,15.9-17.5,39.9c-3.2,15.9-3.5,16.4-16.7,36.3c-13.7,20.4-15.9,24.7-14.4,27.1c0.7,1,2.6,2.1,4.2,2.3
		c2.6,0.3,4.8-1.9,15.4-14.7c12.6-15.2,17.4-19.3,18.7-15.9c1.2,2.8-0.2,6.6-10.2,28.9c-10.3,23.2-11.2,27.2-6.8,29.4
		c1.9,0.9,3.6,1,4.8,0.5c1-0.6,6.5-10.1,12.2-21.2c10.7-21.1,13.9-26.5,15.8-26.5c1.5,0,1.3,11.8-0.8,37.2
		c-1.6,20.9-1.6,22.5,0.2,24.6C66.6,2233.6,68.6,2233.9,71.8,2232.2z M174,2161.7c4.1-3.5,10.3-8.1,13.9-10.1
		c14-7.8,14.3-20.4,1.2-50.9l-5.2-12.2l-0.7-27.5c-0.7-28.6-1.3-31.3-5.9-31.3c-3.7,0-4.8,3.1-7,22.6c-2.1,18.6-3.5,24-5.9,24
		c-2.2,0-4.3-7.7-8-29.7c-4.3-25.6-5.7-29.7-9.5-29.7c-7,0.1-7,0.3-3.2,33.3c2.4,21.1,2.4,24.9,0.1,24.9c-1,0-14.1-22-24.6-41.3
		c-2.7-5.1-5.6-9.7-6.1-10.1c-3.7-2.6-10,0.5-10,5c0,1.2,5,13,11.1,26.3c17.7,38.5,16.9,39.5-10.4,12.1
		c-21.1-21.2-23.3-22.5-27-16.9c-2.4,3.8-3.5,2.1,17.9,30.3c15.4,20.4,24.6,35.1,26.3,42.8c0.6,2.1,0.2,4.2-1,6.1
		c-1.7,2.7-2.2,2.8-16.9,2.8c-15.4,0-19.5,0.9-23,5.1c-2.2,2.6,0.3,5.4,4.8,5.4c6.1,0,19.6,4.8,37.1,13
		c22.6,10.6,27.8,12.3,37.1,12.5l7.8,0.1L174,2161.7z M206.5,2145.9c2.7-5.1,2.9-21.6,0.5-25c-2.9-3.8-4.1-0.7-2.7,6.7
		c0.9,5.5,0.8,8-0.7,13.7c-1.2,3.8-2,7.6-2,8.3C201.6,2152.1,204.5,2149.9,206.5,2145.9z M217.9,2144.1c3-9.2,0.5-26.1-4.1-26.9
		c-1.9-0.3-2.1,0-1.4,2.2c2.4,8.8,3.1,15.5,2,20.9c-1.6,7.4-1.6,8,0.3,8C215.7,2148.4,217.1,2146.4,217.9,2144.1z M41.6,2090.7
		c2.2-5.6,8.1-13,12.4-15.7c2.4-1.4,4.6-2.8,4.9-2.9c0.2-0.2,0.1-1.2-0.3-2.2c-0.6-1.6-1.2-1.5-5.1,0.5c-7.4,3.8-17.6,17.6-16,21.8
		C38.4,2094.6,40.5,2093.9,41.6,2090.7z M34.4,2082.9c2.2-4.8,5.2-9,8.7-12c5.8-5.1,6.8-7.4,3.2-7.4c-6.5,0-20.7,22-16.7,26
		C30.9,2090.7,31.1,2090.6,34.4,2082.9z"/>
</g>
</svg>
