<?xml version="1.0" standalone="no"?>
<!DOCTYPE svg PUBLIC "-//W3C//DTD SVG 20010904//EN"
 "http://www.w3.org/TR/2001/REC-SVG-20010904/DTD/svg10.dtd">
<svg version="1.0" xmlns="http://www.w3.org/2000/svg"
 width="15px" height="15px" viewBox="0 0 920.000000 920.000000"
 preserveAspectRatio="xMidYMid meet">

<g transform="translate(0.000000,920.000000) scale(0.100000,-0.100000)"
fill="#17AF95" stroke="none">
<path d="M3555 9124 c-515 -6 -981 -29 -1215 -60 -429 -55 -823 -192 -1130
-391 -264 -172 -511 -419 -683 -683 -199 -307 -336 -701 -391 -1130 -49 -375
-60 -783 -60 -2255 0 -1315 7 -1674 40 -2068 65 -782 330 -1366 814 -1794 298
-263 627 -433 1044 -539 429 -109 824 -128 2626 -128 1584 0 2001 14 2385 79
624 106 1130 376 1492 799 362 423 551 916 607 1583 33 385 40 754 40 2063 0
1844 -19 2211 -139 2666 -225 855 -815 1461 -1661 1703 -298 86 -555 118
-1109 141 -235 10 -2158 20 -2660 14z m2540 -825 c647 -21 898 -59 1208 -184
268 -108 511 -306 678 -555 144 -214 242 -516 283 -871 35 -296 41 -624 41
-2099 0 -1665 -7 -1902 -65 -2250 -83 -495 -310 -869 -675 -1114 -193 -130
-432 -220 -705 -266 -344 -57 -591 -65 -2165 -65 -1624 0 -1968 8 -2265 51
-318 46 -594 141 -787 271 -179 120 -353 302 -459 478 -129 216 -216 511 -253
855 -30 276 -36 627 -36 2055 0 1484 6 1777 41 2085 50 444 180 772 407 1030
275 313 642 484 1167 544 122 14 468 32 740 39 257 7 2629 3 2845 -4z"/>
<path d="M6930 7553 c-150 -25 -307 -133 -382 -263 -67 -114 -90 -273 -59
-400 61 -247 280 -415 536 -413 398 3 654 424 474 782 -104 207 -344 332 -569
294z"/>
<path d="M4370 6913 c-975 -99 -1786 -800 -2024 -1748 -44 -175 -58 -282 -63
-501 -8 -287 14 -460 87 -717 184 -639 661 -1189 1270 -1463 216 -97 477 -169
702 -193 125 -14 391 -14 516 0 496 54 976 278 1341 625 365 347 597 781 692
1294 30 157 37 503 15 678 -64 502 -281 955 -633 1322 -369 385 -844 625
-1377 695 -106 14 -422 19 -526 8z m520 -833 c306 -62 558 -197 775 -415 217
-216 350 -465 416 -775 32 -151 32 -429 0 -580 -131 -615 -576 -1060 -1191
-1191 -151 -32 -429 -32 -580 0 -614 130 -1061 577 -1191 1191 -30 141 -32
417 -5 560 59 307 202 576 421 795 251 251 553 395 925 439 86 10 329 -3 430
-24z"/>
</g>
</svg>
