<?xml version="1.0" standalone="no"?>
<!DOCTYPE svg PUBLIC "-//W3C//DTD SVG 20010904//EN"
 "http://www.w3.org/TR/2001/REC-SVG-20010904/DTD/svg10.dtd">
<svg version="1.0" xmlns="http://www.w3.org/2000/svg"
 width="20px" height="20px" viewBox="0 0 512.000000 512.000000"
 preserveAspectRatio="xMidYMid meet">

<g transform="translate(0.000000,512.000000) scale(0.100000,-0.100000)"
fill="#FFF" stroke="none">
<path d="M681 4144 c-169 -45 -301 -180 -346 -351 -23 -87 -22 -2380 0 -2468
45 -172 179 -305 352 -350 86 -23 3660 -23 3746 0 173 45 307 178 352 350 13
52 15 211 15 1226 0 739 -4 1186 -10 1220 -34 180 -199 345 -379 379 -35 6
-691 10 -1865 9 -1548 0 -1819 -2 -1865 -15z m3483 -313 c-5 -4 -126 -87 -269
-183 -934 -627 -1325 -888 -1334 -888 -9 0 -1571 1049 -1595 1071 -6 5 691 9
1599 9 899 0 1605 -4 1599 -9z m-2586 -799 c502 -338 929 -619 948 -625 24 -7
47 -8 72 -1 21 6 448 286 955 627 505 339 920 617 923 617 2 0 3 -510 2 -1134
-3 -1128 -3 -1135 -24 -1162 -11 -15 -33 -37 -48 -48 l-27 -21 -1819 0 -1819
0 -27 21 c-15 11 -37 33 -48 48 -21 27 -21 34 -24 1167 -2 916 0 1139 10 1133
7 -4 424 -284 926 -622z"/>
</g>
</svg>
