<?xml version="1.0" encoding="utf-8"?>
<!-- Generator: Adobe Illustrator 22.0.0, SVG Export Plug-In . SVG Version: 6.00 Build 0)  -->
<svg version="1.1" id="Layer_1" xmlns="http://www.w3.org/2000/svg" xmlns:xlink="http://www.w3.org/1999/xlink" x="0px" y="0px"
	 viewBox="0 0 175.8 134" style="enable-background:new 0 0 175.8 134;" xml:space="preserve" height="20px" width="20px">
<style type="text/css">
	.st0{fill:#17AF95;}
</style>
<g transform="translate(0.000000,300.000000) scale(0.100000,-0.100000)">
	<path class="st0" d="M82.8,2939c-17.6-41-17.1-83,1.5-120l1.8-3.6c8.2-16.3,19.3-25.4,30.9-25.4h376.8h374.5
		c12.9,0,25.1,11.3,33.4,31l0,0c13.7,32.4,13.7,85.6,0,118h0c-8.3,19.7-20.5,31-33.4,31h-376h-376C103.4,2970,91.1,2958.7,82.8,2939
		L82.8,2939z"/>
	<path class="st0" d="M98.5,1821c-37-37-38-79-3-120l0,0c16.5-19.7,40.8-31,66.5-31h747.5h747.5c25.6,0,50,11.3,66.5,31v0
		c33,39,33,79,0,118l0,0c-16.5,19.7-40.8,31-66.5,31H912.5H163.4c-23,0-45.1-9.1-61.3-25.4L98.5,1821z"/>
</g>
</svg>
