<?xml version="1.0" standalone="no"?>
<!DOCTYPE svg PUBLIC "-//W3C//DTD SVG 20010904//EN"
 "http://www.w3.org/TR/2001/REC-SVG-20010904/DTD/svg10.dtd">
<svg version="1.0" xmlns="http://www.w3.org/2000/svg"
 width="15px" height="15px" viewBox="0 0 900.000000 920.000000"
 preserveAspectRatio="xMidYMid meet">

<g transform="translate(0.000000,920.000000) scale(0.100000,-0.100000)"
fill="#17AF95" stroke="none">
<path d="M3140 9175 c-369 -40 -635 -104 -942 -226 -460 -184 -828 -427 -1178
-778 -285 -285 -485 -561 -659 -910 -357 -712 -454 -1581 -265 -2356 150 -613
450 -1153 889 -1604 478 -490 1047 -812 1708 -965 246 -58 400 -76 678 -83
380 -9 613 16 962 103 318 80 691 238 952 403 l110 70 255 -257 c140 -141 460
-464 710 -717 1490 -1504 1571 -1585 1620 -1610 107 -54 238 -69 341 -39 113
33 137 54 367 312 119 135 231 265 248 289 73 101 82 246 23 390 l-32 78
-1273 1275 -1273 1275 66 110 c214 353 369 765 443 1175 47 260 63 640 40 915
-89 1033 -647 1981 -1510 2567 -458 311 -948 496 -1520 573 -161 22 -598 28
-760 10z m575 -785 c394 -43 747 -155 1062 -336 771 -443 1262 -1214 1343
-2104 42 -466 -55 -971 -269 -1400 -384 -772 -1092 -1300 -1941 -1450 -622
-109 -1278 14 -1825 343 -682 409 -1139 1092 -1267 1887 -30 192 -33 589 -5
770 80 516 267 942 583 1325 444 540 1057 875 1754 959 137 17 439 20 565 6z"/>
</g>
</svg>
